<svg xmlns="http://www.w3.org/2000/svg" xmlns:xlink="http://www.w3.org/1999/xlink" width="1em" height="1em" preserveAspectRatio="xMidYMid meet" viewBox="0 0 24 24" style="-ms-transform: rotate(360deg); -webkit-transform: rotate(360deg); transform: rotate(360deg);"><path fill="currentColor" fill-rule="evenodd" d="M8.78 4.97a.75.75 0 0 1 0 1.06L2.81 12l5.97 5.97a.75.75 0 1 1-1.06 1.06l-6.5-6.5a.75.75 0 0 1 0-1.06l6.5-6.5a.75.75 0 0 1 1.06 0zm6.44 0a.75.75 0 0 0 0 1.06L21.19 12l-5.97 5.97a.75.75 0 1 0 1.06 1.06l6.5-6.5a.75.75 0 0 0 0-1.06l-6.5-6.5a.75.75 0 0 0-1.06 0z"/></svg>